<svg class="icon" width="200px" height="200.00px" viewBox="0 0 1024 1024" version="1.1" xmlns="http://www.w3.org/2000/svg"><path d="M717.504 235.328c-2.56 0-5.12 1.92-6.4 5.12-0.64 2.56 0 5.76 1.92 8.32l59.52 58.88-225.92 226.56-101.76-101.76a16 16 0 0 0-11.52-5.12 16 16 0 0 0-11.52 5.12l-321.28 321.92c-3.2 2.56-3.2 7.68 0 10.88l44.8 45.44c3.2 3.2 8.32 3.2 11.52 0l276.48-276.48 101.76 101.76c6.4 5.76 16 5.76 22.4 0l271.36-271.36 59.52 58.88c4.48 5.12 12.8 1.92 13.44-4.48l24.32-199.04c0-2.56-0.64-5.12-2.56-6.4a9.152 9.152 0 0 0-6.4-2.56l-199.68 24.32z" fill="#00B42A" /></svg>
