<?xml version="1.0" standalone="no"?><!DOCTYPE svg PUBLIC "-//W3C//DTD SVG 1.1//EN" "http://www.w3.org/Graphics/SVG/1.1/DTD/svg11.dtd"><svg class="icon" width="200px" height="200.00px" viewBox="0 0 1024 1024" version="1.1" xmlns="http://www.w3.org/2000/svg"><path d="M868.1188573 463.74804687a39.55078125 39.55078125 0 0 0-39.55078126 39.55078125v102.43652344L596.00948229 373.17675781a39.55078125 39.55078125 0 0 0-55.76660156 0L401.41963854 512 184.28584948 294.86621094a39.55078125 39.55078125 0 0 0-56.16210938 56.16210937l245.21484376 245.21484375a39.55078125 39.55078125 0 0 0 55.76660155 0l138.8232422-138.82324218 204.47753905 204.47753906H670.36495105a39.55078125 39.55078125 0 0 0-1e-8 79.10156249h197.75390626a39.55078125 39.55078125 0 0 0 39.55078124-39.55078124v-197.75390625a39.55078125 39.55078125 0 0 0-39.55078125-39.94628907z" fill="#ef4544" /></svg>